<svg width="1200" height="720" viewBox="0 0 1200 720" fill="none" xmlns="http://www.w3.org/2000/svg">
  <defs>
    <linearGradient id="bgGlow" x1="120" y1="90" x2="1090" y2="660" gradientUnits="userSpaceOnUse">
      <stop stop-color="#18353C"/>
      <stop offset="0.52" stop-color="#0D1A20"/>
      <stop offset="1" stop-color="#091116"/>
    </linearGradient>
    <linearGradient id="cardWash" x1="180" y1="120" x2="984" y2="640" gradientUnits="userSpaceOnUse">
      <stop stop-color="#F7F4EC" stop-opacity="0.98"/>
      <stop offset="1" stop-color="#EAE3D5" stop-opacity="0.94"/>
    </linearGradient>
    <linearGradient id="crestFill" x1="0" y1="0" x2="1" y2="1">
      <stop offset="0" stop-color="#123841"/>
      <stop offset="1" stop-color="#0B2329"/>
    </linearGradient>
    <linearGradient id="goldLine" x1="0" y1="0" x2="1" y2="1">
      <stop offset="0" stop-color="#E8C676"/>
      <stop offset="1" stop-color="#B78B3F"/>
    </linearGradient>
    <filter id="shadowLg" x="-20%" y="-20%" width="140%" height="160%" color-interpolation-filters="sRGB">
      <feDropShadow dx="0" dy="30" stdDeviation="34" flood-color="#04080B" flood-opacity="0.42"/>
    </filter>
    <filter id="shadowSm" x="-20%" y="-20%" width="140%" height="150%" color-interpolation-filters="sRGB">
      <feDropShadow dx="0" dy="18" stdDeviation="16" flood-color="#020507" flood-opacity="0.22"/>
    </filter>
  </defs>
  <style>
    @import url('https://fonts.googleapis.com/css2?family=Inter:wght@400;500;600;700;800&amp;family=Sora:wght@500;600;700;800&amp;display=swap');

    .eyebrow {
      font-family: 'Inter', sans-serif;
      font-size: 14px;
      font-weight: 700;
      letter-spacing: 0.22em;
      text-transform: uppercase;
    }
    .concept {
      font-family: 'Sora', sans-serif;
      font-size: 58px;
      font-weight: 700;
      letter-spacing: -0.045em;
      fill: #0E1D24;
    }
    .wordmark {
      font-family: 'Sora', sans-serif;
      font-size: 84px;
      font-weight: 700;
      letter-spacing: -0.06em;
      fill: #0C1820;
    }
    .body {
      font-family: 'Inter', sans-serif;
      font-size: 21px;
      line-height: 1.5;
      font-weight: 500;
      fill: #39505B;
    }
    .label {
      font-family: 'Inter', sans-serif;
      font-size: 13px;
      font-weight: 700;
      letter-spacing: 0.18em;
      text-transform: uppercase;
      fill: #687A83;
    }
    .meta {
      font-family: 'Inter', sans-serif;
      font-size: 20px;
      font-weight: 600;
      fill: #10242C;
    }
    .mini {
      font-family: 'Inter', sans-serif;
      font-size: 18px;
      font-weight: 600;
      fill: #E7E1D4;
    }
    .miniLabel {
      font-family: 'Inter', sans-serif;
      font-size: 12px;
      font-weight: 700;
      letter-spacing: 0.16em;
      text-transform: uppercase;
      fill: #A8B9BF;
    }
  </style>

  <rect width="1200" height="720" fill="#091116"/>
  <circle cx="175" cy="94" r="210" fill="#1B4448" opacity="0.28"/>
  <circle cx="1056" cy="636" r="244" fill="#0E2F35" opacity="0.32"/>
  <rect x="36" y="36" width="1128" height="648" rx="34" fill="url(#bgGlow)"/>
  <rect x="94" y="82" width="1012" height="556" rx="32" fill="url(#cardWash)" filter="url(#shadowLg)"/>

  <text x="152" y="150" class="eyebrow" fill="#6B827D">Premium Exploration / 03</text>
  <text x="152" y="205" class="concept">Scorecrest</text>

  <g transform="translate(152 256)">
    <rect x="0" y="0" width="158" height="158" rx="38" fill="#F5F1E8"/>
    <rect x="10" y="10" width="138" height="138" rx="32" fill="url(#crestFill)" stroke="#D9C69B" stroke-width="2.5" filter="url(#shadowSm)"/>

    <rect x="32" y="32" width="24" height="24" rx="8" fill="#6F858B" opacity="0.34"/>
    <rect x="67" y="32" width="24" height="24" rx="8" fill="#2B5960" opacity="0.78"/>
    <rect x="102" y="32" width="24" height="24" rx="8" fill="#E7D3A0"/>

    <rect x="32" y="67" width="24" height="24" rx="8" fill="#2A474E" opacity="0.76"/>
    <rect x="67" y="67" width="24" height="24" rx="8" fill="#D9E3E1"/>
    <rect x="102" y="67" width="24" height="24" rx="8" fill="#2B5960" opacity="0.92"/>

    <rect x="32" y="102" width="24" height="24" rx="8" fill="#E7D3A0"/>
    <rect x="67" y="102" width="24" height="24" rx="8" fill="#6E858A" opacity="0.44"/>
    <rect x="102" y="102" width="24" height="24" rx="8" fill="#173941"/>

    <path d="M42 100L61 119L114 56" stroke="url(#goldLine)" stroke-width="8" stroke-linecap="round" stroke-linejoin="round"/>
  </g>

  <text x="338" y="335" class="wordmark">HackJudge</text>
  <text x="340" y="380" class="body">An official-feeling identity direction for demo days, finals, and judged events.</text>
  <text x="340" y="412" class="body">The score-grid becomes a crest: stricter, calmer, and more authoritative.</text>

  <g transform="translate(152 500)">
    <text x="0" y="0" class="label">Font Pairing</text>
    <text x="0" y="34" class="meta">Sora for brand / Inter for product UI</text>
  </g>
  <g transform="translate(520 500)">
    <text x="0" y="0" class="label">Concept</text>
    <text x="0" y="34" class="meta">Event-grade score crest</text>
  </g>

  <g transform="translate(820 146)">
    <text x="0" y="0" class="label">Mark Application</text>
    <rect x="0" y="26" width="220" height="350" rx="30" fill="#0C1A21"/>
    <rect x="20" y="22" width="180" height="306" rx="22" fill="#12262D" stroke="#27434A"/>
    <rect x="43" y="52" width="134" height="134" rx="30" fill="#F2EBDD"/>
    <rect x="55" y="64" width="110" height="110" rx="25" fill="url(#crestFill)" stroke="#D7C08A" stroke-width="2"/>

    <rect x="72" y="81" width="18" height="18" rx="6" fill="#61777C" opacity="0.4"/>
    <rect x="98" y="81" width="18" height="18" rx="6" fill="#2B5960" opacity="0.8"/>
    <rect x="124" y="81" width="18" height="18" rx="6" fill="#E7D3A0"/>

    <rect x="72" y="107" width="18" height="18" rx="6" fill="#244149" opacity="0.88"/>
    <rect x="98" y="107" width="18" height="18" rx="6" fill="#DDE6E3"/>
    <rect x="124" y="107" width="18" height="18" rx="6" fill="#2B5960"/>

    <rect x="72" y="133" width="18" height="18" rx="6" fill="#E7D3A0"/>
    <rect x="98" y="133" width="18" height="18" rx="6" fill="#61777C" opacity="0.46"/>
    <rect x="124" y="133" width="18" height="18" rx="6" fill="#183A42"/>

    <path d="M79 131L94 146L133 99" stroke="url(#goldLine)" stroke-width="6" stroke-linecap="round" stroke-linejoin="round"/>

    <text x="44" y="219" class="miniLabel">Finalist Badge</text>
    <text x="44" y="251" class="mini" style="font-family:'Sora',sans-serif;font-size:28px;font-weight:700;letter-spacing:-0.04em;">HackJudge</text>
    <rect x="44" y="272" width="112" height="2" rx="1" fill="#31565E"/>
    <text x="44" y="301" class="mini" style="font-size:14px;fill:#A8B9BF;">Official review panel</text>

    <rect x="54" y="372" width="56" height="56" rx="16" fill="#F4EEE2"/>
    <rect x="61" y="379" width="42" height="42" rx="12" fill="#10242C"/>
    <rect x="71" y="389" width="7" height="7" rx="2.5" fill="#6D848A" opacity="0.45"/>
    <rect x="81" y="389" width="7" height="7" rx="2.5" fill="#2B5960"/>
    <rect x="91" y="389" width="7" height="7" rx="2.5" fill="#E7D3A0"/>
    <rect x="71" y="399" width="7" height="7" rx="2.5" fill="#28454C"/>
    <rect x="81" y="399" width="7" height="7" rx="2.5" fill="#DDE6E3"/>
    <rect x="91" y="399" width="7" height="7" rx="2.5" fill="#2B5960"/>
    <rect x="71" y="409" width="7" height="7" rx="2.5" fill="#E7D3A0"/>
    <rect x="81" y="409" width="7" height="7" rx="2.5" fill="#6D848A" opacity="0.45"/>
    <rect x="91" y="409" width="7" height="7" rx="2.5" fill="#183A42"/>
    <path d="M74 408L80 414L95 395" stroke="url(#goldLine)" stroke-width="3.2" stroke-linecap="round" stroke-linejoin="round"/>

    <text x="122" y="398" class="miniLabel">App icon</text>
    <text x="122" y="419" class="mini" style="font-size:15px;fill:#CFD8D4;">Small-mark preview</text>
  </g>
</svg>
