<svg width="1200" height="920" viewBox="0 0 1200 920" fill="none" xmlns="http://www.w3.org/2000/svg">
  <defs>
    <linearGradient id="sheet-verdict" x1="84" y1="170" x2="156" y2="242" gradientUnits="userSpaceOnUse">
      <stop stop-color="#0f766e" />
      <stop offset="1" stop-color="#14b8a6" />
    </linearGradient>
    <linearGradient id="sheet-verdict-accent" x1="112" y1="196" x2="134" y2="230" gradientUnits="userSpaceOnUse">
      <stop stop-color="#fbbf24" />
      <stop offset="1" stop-color="#f59e0b" />
    </linearGradient>
    <linearGradient id="sheet-circuit" x1="666" y1="172" x2="742" y2="248" gradientUnits="userSpaceOnUse">
      <stop stop-color="#0f766e" />
      <stop offset="1" stop-color="#0f172a" />
    </linearGradient>
    <linearGradient id="sheet-arena" x1="114" y1="626" x2="138" y2="706" gradientUnits="userSpaceOnUse">
      <stop stop-color="#14b8a6" />
      <stop offset="1" stop-color="#0f766e" />
    </linearGradient>
  </defs>
  <rect width="1200" height="920" fill="#f8fafc" />
  <text x="60" y="82" fill="#0f172a" font-family="ui-sans-serif, system-ui, sans-serif" font-size="38" font-weight="800" letter-spacing="-0.04em">HackJudge Logo Directions</text>
  <text x="60" y="118" fill="#64748b" font-family="ui-sans-serif, system-ui, sans-serif" font-size="18" font-weight="500">Four different visual directions for the judging platform brand.</text>

  <rect x="60" y="156" width="500" height="300" rx="28" fill="#ffffff" stroke="#dbe3ea" stroke-width="2" />
  <text x="90" y="208" fill="#0f172a" font-family="ui-sans-serif, system-ui, sans-serif" font-size="24" font-weight="800">1. Verdict Badge</text>
  <text x="90" y="238" fill="#64748b" font-family="ui-sans-serif, system-ui, sans-serif" font-size="15" font-weight="500">Confident, product-ready, and balanced between event prestige and utility.</text>
  <path d="M98 262h36l21 21v36L134 340H98L77 319V283L98 262Z" fill="#ffffff" stroke="#d4d4d8" stroke-width="4" />
  <path d="M98 268h33l18 18v33L131 334H98L83 319V283L98 268Z" fill="url(#sheet-verdict)" opacity="0.18" />
  <path d="M101 280v42" stroke="#0f172a" stroke-width="8" stroke-linecap="round" />
  <path d="M131 280v42" stroke="#0f172a" stroke-width="8" stroke-linecap="round" />
  <path d="M101 300h18" stroke="#0f172a" stroke-width="8" stroke-linecap="round" />
  <path d="M109 308l9 9 19-27" stroke="url(#sheet-verdict-accent)" stroke-width="7" stroke-linecap="round" stroke-linejoin="round" />
  <circle cx="138" cy="279" r="5" fill="#fbbf24" />
  <text x="187" y="312" fill="#0f172a" font-family="ui-monospace, SFMono-Regular, Menlo, Monaco, Consolas, Liberation Mono, monospace" font-size="40" font-weight="800" letter-spacing="-0.06em">Hack</text>
  <text x="287" y="312" fill="#0d9488" font-family="ui-monospace, SFMono-Regular, Menlo, Monaco, Consolas, Liberation Mono, monospace" font-size="40" font-weight="800" letter-spacing="-0.06em">Judge</text>
  <text x="90" y="392" fill="#0f172a" font-family="ui-sans-serif, system-ui, sans-serif" font-size="15" font-weight="700">Best if:</text>
  <text x="145" y="392" fill="#475569" font-family="ui-sans-serif, system-ui, sans-serif" font-size="15" font-weight="500">you want a durable default that feels official and easy to trust.</text>

  <rect x="640" y="156" width="500" height="300" rx="28" fill="#ffffff" stroke="#dbe3ea" stroke-width="2" />
  <text x="670" y="208" fill="#0f172a" font-family="ui-sans-serif, system-ui, sans-serif" font-size="24" font-weight="800">2. Circuit Spark</text>
  <text x="670" y="238" fill="#64748b" font-family="ui-sans-serif, system-ui, sans-serif" font-size="15" font-weight="500">More hackathon-native. The mark leans technical, energetic, and builder-friendly.</text>
  <rect x="668" y="266" width="80" height="80" rx="24" fill="url(#sheet-circuit)" />
  <path d="M690 286v40" stroke="#f8fafc" stroke-width="8" stroke-linecap="round" />
  <path d="M726 286v40" stroke="#f8fafc" stroke-width="8" stroke-linecap="round" />
  <path d="M690 306h36" stroke="#f8fafc" stroke-width="8" stroke-linecap="round" />
  <circle cx="690" cy="279" r="6" fill="#14b8a6" />
  <circle cx="726" cy="279" r="6" fill="#14b8a6" />
  <circle cx="690" cy="333" r="6" fill="#14b8a6" />
  <circle cx="726" cy="333" r="6" fill="#14b8a6" />
  <path d="M734 277l4 10 10 4-10 4-4 10-4-10-10-4 10-4 4-10Z" fill="#fbbf24" />
  <text x="775" y="313" fill="#0f172a" font-family="ui-sans-serif, system-ui, sans-serif" font-size="42" font-weight="800" letter-spacing="-0.05em">HackJudge</text>
  <text x="670" y="392" fill="#0f172a" font-family="ui-sans-serif, system-ui, sans-serif" font-size="15" font-weight="700">Best if:</text>
  <text x="725" y="392" fill="#475569" font-family="ui-sans-serif, system-ui, sans-serif" font-size="15" font-weight="500">you want it to feel more like a modern dev tool than an awards platform.</text>

  <rect x="60" y="500" width="500" height="300" rx="28" fill="#ffffff" stroke="#dbe3ea" stroke-width="2" />
  <text x="90" y="552" fill="#0f172a" font-family="ui-sans-serif, system-ui, sans-serif" font-size="24" font-weight="800">3. Score Grid</text>
  <text x="90" y="582" fill="#64748b" font-family="ui-sans-serif, system-ui, sans-serif" font-size="15" font-weight="500">Operational and structured. This one emphasizes scoring, evaluation, and signal clarity.</text>
  <rect x="88" y="610" width="80" height="80" rx="24" fill="#ffffff" stroke="#cbd5e1" stroke-width="4" />
  <rect x="103" y="625" width="14" height="14" rx="4" fill="#0f172a" />
  <rect x="121" y="625" width="14" height="14" rx="4" fill="#0d9488" />
  <rect x="139" y="625" width="14" height="14" rx="4" fill="#ccfbf1" />
  <rect x="103" y="643" width="14" height="14" rx="4" fill="#cbd5e1" />
  <rect x="121" y="643" width="14" height="14" rx="4" fill="#0f172a" />
  <rect x="139" y="643" width="14" height="14" rx="4" fill="#0d9488" />
  <rect x="103" y="661" width="14" height="14" rx="4" fill="#e2e8f0" />
  <rect x="121" y="661" width="14" height="14" rx="4" fill="#cbd5e1" />
  <rect x="139" y="661" width="14" height="14" rx="4" fill="#0f172a" />
  <path d="M105 656l12 12 31-35" stroke="#f59e0b" stroke-width="7" stroke-linecap="round" stroke-linejoin="round" />
  <text x="205" y="656" fill="#0f172a" font-family="ui-sans-serif, system-ui, sans-serif" font-size="42" font-weight="800" letter-spacing="-0.04em">HackJudge</text>
  <rect x="205" y="673" width="76" height="10" rx="5" fill="#0f172a" opacity="0.12" />
  <rect x="205" y="691" width="96" height="10" rx="5" fill="#0d9488" opacity="0.3" />
  <rect x="205" y="709" width="56" height="10" rx="5" fill="#0f172a" opacity="0.12" />
  <text x="90" y="736" fill="#0f172a" font-family="ui-sans-serif, system-ui, sans-serif" font-size="15" font-weight="700">Best if:</text>
  <text x="145" y="736" fill="#475569" font-family="ui-sans-serif, system-ui, sans-serif" font-size="15" font-weight="500">the product story should focus on judging mechanics and transparent scoring.</text>

  <rect x="640" y="500" width="500" height="300" rx="28" fill="#ffffff" stroke="#dbe3ea" stroke-width="2" />
  <text x="670" y="552" fill="#0f172a" font-family="ui-sans-serif, system-ui, sans-serif" font-size="24" font-weight="800">4. Arena Brackets</text>
  <text x="670" y="582" fill="#64748b" font-family="ui-sans-serif, system-ui, sans-serif" font-size="15" font-weight="500">Sharper and more competitive. This leans into event structure, brackets, and winners.</text>
  <path d="M690 618h-10v58h10" stroke="#0f172a" stroke-width="8" stroke-linecap="round" stroke-linejoin="round" />
  <path d="M735 618h10v58h-10" stroke="#0f172a" stroke-width="8" stroke-linecap="round" stroke-linejoin="round" />
  <path d="M704 618h18l7 7v36l-16 16-16-16v-36l7-7Z" fill="url(#sheet-arena)" />
  <path d="M701 655l12 12 21-27" stroke="#f8fafc" stroke-width="7" stroke-linecap="round" stroke-linejoin="round" />
  <circle cx="713" cy="615" r="6" fill="#fbbf24" />
  <text x="775" y="656" fill="#0f172a" font-family="ui-monospace, SFMono-Regular, Menlo, Monaco, Consolas, Liberation Mono, monospace" font-size="38" font-weight="800" letter-spacing="-0.04em">HACKJUDGE</text>
  <path d="M777 678h74" stroke="#0f172a" stroke-width="4" stroke-linecap="round" opacity="0.16" />
  <path d="M777 696h53" stroke="#0d9488" stroke-width="4" stroke-linecap="round" opacity="0.8" />
  <path d="M777 714h85" stroke="#0f172a" stroke-width="4" stroke-linecap="round" opacity="0.16" />
  <text x="670" y="736" fill="#0f172a" font-family="ui-sans-serif, system-ui, sans-serif" font-size="15" font-weight="700">Best if:</text>
  <text x="725" y="736" fill="#475569" font-family="ui-sans-serif, system-ui, sans-serif" font-size="15" font-weight="500">you want the brand to feel more competitive, event-driven, and high-stakes.</text>
</svg>
