<svg width="640" height="180" viewBox="0 0 320 90" fill="none" xmlns="http://www.w3.org/2000/svg">
  <rect x="8" y="14" width="52" height="52" rx="16" fill="#ffffff" stroke="#cbd5e1" stroke-width="2.5" />
  <rect x="18" y="24" width="10" height="10" rx="3" fill="#0f172a" />
  <rect x="30" y="24" width="10" height="10" rx="3" fill="#0d9488" />
  <rect x="42" y="24" width="10" height="10" rx="3" fill="#ccfbf1" />
  <rect x="18" y="36" width="10" height="10" rx="3" fill="#cbd5e1" />
  <rect x="30" y="36" width="10" height="10" rx="3" fill="#0f172a" />
  <rect x="42" y="36" width="10" height="10" rx="3" fill="#0d9488" />
  <rect x="18" y="48" width="10" height="10" rx="3" fill="#e2e8f0" />
  <rect x="30" y="48" width="10" height="10" rx="3" fill="#cbd5e1" />
  <rect x="42" y="48" width="10" height="10" rx="3" fill="#0f172a" />
  <path d="M20 47l8 8 22-25" stroke="#f59e0b" stroke-width="4.5" stroke-linecap="round" stroke-linejoin="round" />
  <text x="80" y="47" fill="#0f172a" font-family="ui-sans-serif, system-ui, sans-serif" font-size="27" font-weight="800" letter-spacing="-0.04em">HackJudge</text>
  <text x="81" y="67" fill="#64748b" font-family="ui-sans-serif, system-ui, sans-serif" font-size="10" font-weight="700" letter-spacing="0.18em">SCORE GRID</text>
  <rect x="228" y="24" width="44" height="8" rx="4" fill="#0f172a" opacity="0.12" />
  <rect x="228" y="38" width="56" height="8" rx="4" fill="#0d9488" opacity="0.28" />
  <rect x="228" y="52" width="35" height="8" rx="4" fill="#0f172a" opacity="0.12" />
</svg>
