<svg width="640" height="180" viewBox="0 0 320 90" fill="none" xmlns="http://www.w3.org/2000/svg">
  <defs>
    <linearGradient id="circuit-bg" x1="12" y1="14" x2="60" y2="62" gradientUnits="userSpaceOnUse">
      <stop stop-color="#0f766e" />
      <stop offset="1" stop-color="#0f172a" />
    </linearGradient>
  </defs>
  <rect x="8" y="14" width="52" height="52" rx="16" fill="url(#circuit-bg)" />
  <path d="M22 27v26" stroke="#f8fafc" stroke-width="5" stroke-linecap="round" />
  <path d="M46 27v26" stroke="#f8fafc" stroke-width="5" stroke-linecap="round" />
  <path d="M22 40h24" stroke="#f8fafc" stroke-width="5" stroke-linecap="round" />
  <circle cx="22" cy="23" r="4" fill="#14b8a6" />
  <circle cx="46" cy="23" r="4" fill="#14b8a6" />
  <circle cx="22" cy="57" r="4" fill="#14b8a6" />
  <circle cx="46" cy="57" r="4" fill="#14b8a6" />
  <path d="M51 20l2.2 5.8L59 28l-5.8 2.2L51 36l-2.2-5.8L43 28l5.8-2.2L51 20Z" fill="#fbbf24" />
  <text x="80" y="47" fill="#0f172a" font-family="ui-sans-serif, system-ui, sans-serif" font-size="29" font-weight="800" letter-spacing="-0.05em">HackJudge</text>
  <text x="81" y="67" fill="#0d9488" font-family="ui-sans-serif, system-ui, sans-serif" font-size="10" font-weight="700" letter-spacing="0.18em">CIRCUIT SPARK</text>
  <path d="M244 32h25" stroke="#14b8a6" stroke-width="2.5" stroke-linecap="round" />
  <path d="M256.5 19v26" stroke="#14b8a6" stroke-width="2.5" stroke-linecap="round" opacity="0.5" />
</svg>
